<svg xmlns="http://www.w3.org/2000/svg" xmlns:xlink="http://www.w3.org/1999/xlink" xml:space="preserve" width="520.154" height="583.859" viewBox="0 0 137.624 154.479"><defs><linearGradient id="c"><stop offset="0" style="stop-color:#000;stop-opacity:1"/></linearGradient><linearGradient id="b"><stop offset="0" style="stop-color:#000;stop-opacity:1"/></linearGradient><linearGradient id="a"><stop offset="0" style="stop-color:#000;stop-opacity:1"/></linearGradient><linearGradient xlink:href="#a" id="d" x1="39.267" x2="147.66" y1="144.956" y2="144.956" gradientTransform="translate(10.477 -36.295)" gradientUnits="userSpaceOnUse"/><linearGradient xlink:href="#b" id="e" x1="45.353" x2="64.484" y1="109.522" y2="109.522" gradientUnits="userSpaceOnUse"/><linearGradient xlink:href="#c" id="f" x1="122.444" x2="141.5" y1="109.556" y2="109.556" gradientUnits="userSpaceOnUse"/></defs><rect width="100%" height="100%" fill="#fcdfb7"/><g style="display:inline;opacity:1"><path d="M134.864 82.925c-9.076 26.812-10.422 35.951 1.701 54.756 2.016 1.344 7.73 7.14 11.095 14.62-4.673 4.298-4.406 5.894-14.427 25.217-9.695 18.693-39.895 32.493-39.895 32.493s-31.61-16.286-41.776-35.504c-7.653-20.198-12.295-21.954-12.295-21.954 1.566-5.175 15.692-21.707 22.331-30.862-.629-4.629-5.154-22.333-6.273-26.346-.634-1.787-4.844-12.456-1.881-14.552l8.28 2.885c5.616 9.04 9.144 19.409 18.065 26.346 6.014-1.167 10.68-2.756 27.976-.377 7.404-6.375 12.14-16.086 16.937-25.718l3.763-3.638c1.48-1.43 6.754 1.45 6.399 2.634" style="color:#000;fill:#ff9529;stroke-width:.264583;-inkscape-stroke:none" transform="translate(-24.464 -56.204)"/><path d="M134.855 82.877c-.512.122-13.893 19.348-14.795 21.125l-4.266 8.405c-2.288-.655-3.008-1.984-8.028-2.76-17.296-2.38-22.214-1.166-28.228 0-2.272.34-4.294 1.136-7.276 2.384l-17.94-28.855c-2.963 2.096.369 10.382 1.003 12.17 1.119 4.012 8.028 20.587 8.657 25.216-.636 7.554-2.085 20.761-3.81 30.58-6.86.77-17.8.74-20.89 1.395 0 0 4.627 1.772 12.28 21.97 10.165 19.218 41.776 35.504 41.776 35.504s30.2-13.8 39.895-32.493c10.021-19.324 9.753-20.92 14.427-25.216-12.523-.581-17.178-.914-21.327-1.255-.245-8.895-2.663-25.787-2.62-32.116.104-14.8 4.794-17.226 11.15-36.006q.018-.055-.008-.048zm-84.673 72.435 15.558-.134c.365-12.502 2.083-24.553 8.427-35.062 2.86 4.66 5.704 9.408 10.849 2.647l8.448 16.868 8.515-17.01c2.99 4.659 6.356 7.212 11.99-2.998 4.893 11.51 7.513 23.344 7.722 35.523l14.678.041c-4.276 25.906-43.146 19.6-43.533 38.64.614-16.585-37.777-16.036-42.654-38.515" style="color:#000;fill:#c2660a;stroke-width:.264583;-inkscape-stroke:none" transform="translate(-24.464 -56.204)"/><path d="M139.834 42.957c-1.346.073-2.051 1.398-3.005 2.161-.741.784-1.641 1.454-2.285 2.31-3.555 7.078-7.002 14.274-11.958 20.439-1.388 1.716-2.901 3.336-4.564 4.789-7.919-1.019-16.033-1.901-23.946-.36-1.214.222-2.421.48-3.632.721-5.568-4.366-9.225-10.578-12.503-16.73-1.717-3.179-3.387-6.389-5.308-9.453q-4.412-1.54-8.826-3.076c-1.581.96-1.693 3.035-1.553 4.69.354 3.873 1.781 7.532 3.019 11.184 2.072 7.815 4.093 15.73 5.756 23.65.076.666.365 1.386.285 2.027-6.305 8.577-13.275 16.654-19.293 25.442-1.203 1.865-2.509 3.739-3.085 5.91 1.44.472 2.312 1.84 3.233 2.956 3.35 4.65 5.668 9.992 7.855 15.266.752 1.764 1.262 3.642 2.339 5.25 4.24 7.038 10.263 12.796 16.575 17.969 7.691 6.201 16.012 11.614 24.72 16.278.505.077 1.016-.425 1.523-.582 9.136-4.54 17.896-9.937 25.714-16.515 5.673-4.817 10.895-10.407 14.135-17.18 2.963-5.678 5.742-11.504 8.67-17.162 1.185-2.316 2.74-4.56 4.74-6.31.611-.31.422-.777.13-1.264-2.373-5.003-5.668-9.593-9.724-13.369-.65-.615-1.477-1.04-1.84-1.904-3.82-6.047-7.232-12.65-7.932-19.877-.642-6.226.642-12.566 2.252-18.559 1.353-5.042 3.045-9.996 4.67-14.945.107-1.188-1.102-1.915-1.967-2.483-1.26-.732-2.709-1.351-4.195-1.273m.485 1.318c1.597.21 3.183.938 4.297 2.113.054.584-.37 1.22-.501 1.823-2.464 7.465-4.994 14.974-6.115 22.782-.828 5.674-.464 11.56 1.445 16.988 1.69 4.941 4.303 9.504 7.12 13.88 2.585 1.903 4.643 4.426 6.572 6.967 1.608 2.212 3.042 4.556 4.197 7.037-2.601 2.296-4.307 5.365-5.83 8.434-3.048 6.034-5.964 12.144-9.195 18.089-3.978 6.705-9.764 12.046-15.89 16.809-7.002 5.322-14.637 9.938-22.587 13.775a160.6 160.6 0 0 1-21.941-14.21c-6.12-4.797-12.034-10.141-16.56-16.49-1.356-1.957-2.692-3.968-3.43-6.25-2.323-5.787-4.779-11.6-8.344-16.75-.872-1.197-1.801-2.386-2.99-3.284 1.465-3.318 3.742-6.19 5.834-9.127 5.332-7.195 11.076-14.075 16.369-21.297-.857-5.252-2.225-10.403-3.464-15.574-.97-3.83-1.888-7.677-2.992-11.47-1.087-2.968-2.104-5.914-2.614-9.071-.139-1.29-.427-2.878.344-4.122.559-.004 1.24.403 1.846.558l5.864 2.044c4.456 7.233 7.654 15.318 13.316 21.774 1.516 1.734 3.192 3.337 5.032 4.724 3.748-.76 7.514-1.56 11.356-1.618 5.693-.154 11.378.475 16.984 1.245 6.078-5.176 10.167-12.196 13.827-19.184 1.211-2.283 2.302-4.642 3.522-6.91 1.256-1.186 2.463-2.435 3.75-3.581.244-.107.516-.118.778-.104" style="color:#000;display:inline;opacity:1;fill:url(#d);-inkscape-stroke:none" transform="translate(-34.94 -19.908)"/></g><g style="display:inline" transform="translate(-34.94 -19.908)"><path d="M87.757 134.197c2.207-1.14 2.954-4.032 3.513-7.15l-16.56-15.933-4.642-.126c1.424 7.588-2.65 14.992 17.689 23.21M121.285 134.318c-2.21-1.272-3.853-3.123-4.674-5.64l18.727-19.302 3.538 3.143c-.07 9.005-7.166 17.137-17.59 21.8" style="display:inline;opacity:1;fill:#fff;fill-opacity:1;stroke:none;stroke-width:.264583"/><path d="M145.889 108.369c1.968 1.726-2.778 4.189-7.056 4.395-.797-.628-1.194-1.067-3.27-1.585-.03.053-.393.387-.456.732-2.92 16.165-9.917 11.797-13.24 13.719-1.755.845-3.456 3.68-5.689 6.151-2.582.95-3.03-.374-3.38-1.291-.147-2.511 2.714-7.406 2.656-7.88-.024-2.375-.164-7.685.327-8.225 4.514-6.203 10.354-8.064 16.801-7.937 5.44-.19 7.611 3.953 13.307 1.921" style="opacity:1;fill:#000;fill-opacity:1;stroke:none;stroke-width:.264583"/><path d="M73.128 111.56c.982 8.556 6.02 13.574 14.055 14.725 1.441.285 2.691 2.284 3.962 4.099.623.459 1.339.843 2.4.952 1.02-.089 2.066-.142 2.057-1.777-.967-2.338-2.288-4.322-2.9-7.016.491-5.726-.017-7.18-.467-8.887-3.82-3.425-5.26-6.403-16.083-6.723-3.78.362-5.145.863-7.033 2.202-3.141.925-4.247.51-6.263.662s3.212 3.41 7.185 3.298c.941-.452 1.427-1.355 3.087-1.535" style="display:inline;opacity:1;fill:#000;fill-opacity:1;stroke:none;stroke-width:.264583"/><path d="M76.987 112.066c-.354 11.637 9.899 12.39 12.254 7.951 1.057-2.565-2.193-3.69-2.198-3.835zM130.881 112.051c1.548 7.273-5.152 11.313-9.813 9.634-4.66-1.68-2.063-5.494.833-5.985z" style="display:inline;opacity:1;fill:#ffc34c;fill-opacity:1;stroke:none;stroke-width:.264583"/><ellipse cx="85.354" cy="115.807" rx="2.183" ry="2.15" style="display:inline;opacity:1;fill:#000;fill-opacity:1;stroke:none;stroke-width:.264583"/><ellipse cx="123.652" cy="115.41" rx="2.183" ry="2.15" style="display:inline;opacity:1;fill:#000;fill-opacity:1;stroke:none;stroke-width:.264583"/></g><g style="display:inline"><path d="M94.03 161.797c5.355 5.385 12.208 5.614 20.574.628 10.982-5.31 9.27-13.5 8.601-21.4-9.72 3.648-23.453 2.583-38.835-.43-.877 8.328-2.158 16.78 9.66 21.202" style="display:inline;opacity:1;fill:#fff;fill-opacity:1;stroke:none;stroke-width:.264583" transform="translate(-34.94 -19.908)"/><path d="m77.864 137.454 9.266 3.652c-2.205 7.586 1.608 12.719 5.018 17.555 1.613.733 6.607-2.175 9.91-3.262-.062-6.36-5.838-7.958-9.534-11.29-1.435-2.217-.567-4.433-.627-6.65 3.973-.381 10.961 3.052 12.362 4 .823-1.345 9.643-4.697 11.474-4.125.611 2.132.959 4.265.628 6.398-3.928 3.061-8.867 5.417-10.074 11.246 3.696 1.826 6.493 3.523 9.195 3.934 5.38-6.641 7.65-12.733 5.823-17.247l9.593-3.986c10.44 5.87-7.211 23.86-17.259 25.323-.242-.635-.42-1.337-1.233-2.2-5.75-1.395-10.956-1.071-16.371-.131-.453.687-1.005 1.251-1.13 1.962-10.468 1.075-25.994-21.757-17.041-25.18" style="display:inline;opacity:1;fill:#000;fill-opacity:1;stroke:none;stroke-width:.264583" transform="translate(-34.94 -19.908)"/></g><g style="display:inline"><path d="M50.558 141.262c1.83-5.019 5.44-11.017 13.926-19.697-2.902-31.468-7.823-31.12-11.919-43.783l-6.523 1.254c7.427 20.69-8.242 30.095 4.516 62.226" style="color:#000;fill:#131d39;stroke-width:.264583;-inkscape-stroke:none" transform="translate(-24.464 -56.204)"/><path d="M52.557 77.11q-3.702.712-7.403 1.423c1.421 3.705 2.278 7.78 2.32 11.705.114 6.886-1.833 13.613-2.47 20.472-.854 7.833.075 15.798 2.345 23.325.903 3.088 2.035 6.104 3.233 9.088 1.31-3.995 3.32-7.729 5.799-11.116 2.626-3.635 5.647-6.976 8.79-10.202-.836-8.555-1.785-17.168-4.223-25.44-1.266-4.482-3.41-8.63-5.409-12.814a53 53 0 0 1-2.52-6.531zm-.188 2.132c1.917 5.623 5.227 10.662 6.958 16.358 1.947 6.069 2.938 12.453 3.726 18.782.288 2.325.52 4.626.742 6.95-4.902 5.094-9.648 10.533-12.696 16.973-.209.215-.414 1.382-.59.927-2.709-7.22-4.499-14.853-4.484-22.556-.051-6.024 1.167-11.935 2.094-17.898.859-5.398 1.028-10.992-.363-16.319a35 35 0 0 0-.858-2.914l5.233-1.006z" style="color:#000;display:inline;fill:url(#e);-inkscape-stroke:none" transform="translate(-24.464 -56.204)"/><g style="display:inline"><path d="M136.098 142.208c-3.654-7.596-7.994-15.43-13.654-21.019 2.753-27.866 8.196-32.423 12.796-44.285l4.642 3.763c-5.006 12.865 8.666 33.112-3.784 61.541" style="color:#000;fill:#131e3a;stroke-width:.264583;-inkscape-stroke:none" transform="translate(-24.464 -56.204)"/><path d="M134.688 76.498c-2.478 6.4-6.005 12.36-8.072 18.925-2.744 8.414-3.976 17.229-4.858 26.007 6.103 6.058 10.21 13.76 13.912 21.414.27.703.539 1.25.777.216 3.686-8.153 5.68-17.068 5.71-26.02.106-7.635-1.254-15.17-2.267-22.708-.549-4.601-1.029-9.478.776-13.879l-5.719-4.639zm4.425 4.397c-1.621 4.684-1.016 9.743-.412 14.554 1.119 7.897 2.454 15.771 2.068 23.767a61.7 61.7 0 0 1-3.274 17.508 65 65 0 0 1-1.46 3.874c-3.475-7.027-7.358-14.017-12.904-19.643.924-8.929 2.224-17.958 5.187-26.447 1.954-5.699 4.95-10.954 7.2-16.53z" style="color:#000;fill:url(#f);-inkscape-stroke:none" transform="translate(-24.464 -56.204)"/></g><path d="M34.94 19.908c10.323 2.075 21.947 6.715 43.157 30.235-5.052-2.185-8.587-4.543-21.546-5.147-3.042-10.46-11.269-18.278-21.61-25.088M172.564 20.16c-16.918 3.598-30.525 15.476-42.78 30.736 7.64-4.68 15.066-7.24 21.034-5.898 3.594-9.471 10.976-17.555 21.746-24.839" style="display:inline;opacity:1;fill:#000;fill-opacity:1;stroke:none;stroke-width:.264583" transform="translate(-34.94 -19.908)"/></g></svg>